# xmcd CD database file generated by Grip 3.2.0
# 
# Track frame offsets:
#       150
#       20609
#       37536
#       54586
#       71953
#       88283
#       104560
#       120792
#       140089
#       158942
# 
# Disc length: 2349 seconds
# 
# Revision: 3
# Processed by: cddbd v1.5.1PL2 Copyright (c) Steve Scherf et al.
# Submitted via: Grip 3.2.0
# 
DISCID=87092b0a
DTITLE=Tom Vek - We Have Sound
DYEAR=2005
DGENRE=Other
TTITLE0=C-C (You Set The Fire In Me)
TTITLE1=I Ain't Saying My Goodbyes
TTITLE2=If You Want
TTITLE3=A Little Word In Your Ear
TTITLE4=If I Had Changed My Mind
TTITLE5=The Lower The Sun
TTITLE6=Cover
TTITLE7=Nothing But Green Lights
TTITLE8=On The Road
TTITLE9=That Can Be Arranged
EXTD=
EXTT0=
EXTT1=
EXTT2=
EXTT3=
EXTT4=
EXTT5=
EXTT6=
EXTT7=
EXTT8=
EXTT9=
PLAYORDER=
